Coordinates
version=1
nRows=29
nColumns=24
inDegrees=yes

Units are S.I. units (second, meters, Newtons, ...)
Angles are in degrees.

endheader
time	pelvis_tilt	pelvis_list	pelvis_rotation	pelvis_tx	pelvis_ty	pelvis_tz	hip_flexion_r	hip_adduction_r	hip_rotation_r	knee_angle_r	ankle_angle_r	subtalar_angle_r	mtp_angle_r	hip_flexion_l	hip_adduction_l	hip_rotation_l	knee_angle_l	ankle_angle_l	subtalar_angle_l	mtp_angle_l	lumbar_extension	lumbar_bending	lumbar_rotation
      0.96716667	     -5.33801613	     -4.24508312	      0.35372573	     -0.16659790	      1.01297068	      0.33394697	     -4.58496000	      8.96530592	      0.55151261	    -12.23652411	     12.23429847	     -5.76492114	     -0.01118269	     25.34545232	     -3.06054735	     -2.63282563	      3.65779714	      2.08652382	     -4.94960422	     -4.56181746	     -1.36421077	      2.36433363	      4.84786772
      0.97133333	     -5.36271673	     -4.15257892	      0.29333733	     -0.16092224	      1.01219991	      0.33356200	     -4.58226080	      8.81692555	      0.43025382	    -12.91291605	     12.55258019	     -5.39049507	      0.02601441	     25.37389483	     -2.89841163	     -2.33965702	      3.44586493	      2.10417306	     -4.92763519	     -4.32938534	     -1.31764756	      2.25217997	      4.84684481
      0.97550000	     -5.33184869	     -4.04529816	      0.25134035	     -0.15521862	      1.01153465	      0.33318838	     -4.64360908	      8.66631746	      0.38139161	    -13.57610421	     12.78769034	     -5.20016832	      0.08007373	     25.34818362	     -2.72017750	     -2.03985817	      3.15609846	      2.09999115	     -4.94765478	     -4.00861867	     -1.33554563	      2.10818999	      4.83419404
      0.97966667	     -5.29500961	     -3.93091183	      0.21954013	     -0.14950042	      1.01092164	      0.33282608	     -4.70870259	      8.52453757	      0.41397890	    -14.23167728	     12.85575974	     -5.30607343	      0.09423086	     25.33883567	     -2.53518633	     -1.78184586	      2.75849478	      2.07845903	     -4.93494237	     -3.94350062	     -1.36145157	      1.96070515	      4.83315570
      0.98383333	     -5.28834130	     -3.80619518	      0.18264243	     -0.14377767	      1.01026860	      0.33241027	     -4.66965279	      8.34600880	      0.29084374	    -15.04523514	     13.09512584	     -4.99785271	      0.18857952	     25.36072033	     -2.33641189	     -1.48642183	      2.31141548	      1.95492732	     -5.08081057	     -3.58517988	     -1.33971961	      1.80266161	      4.80979723
      0.98800000	     -5.22135621	     -3.65665841	      0.16603595	     -0.13800794	      1.00974705	      0.33203045	     -4.71837195	      8.16937424	      0.30291400	    -15.79814109	     13.12237303	     -5.11452255	      0.21153791	     25.33383361	     -2.11335309	     -1.26278672	      1.77719585	      1.88952940	     -5.11834799	     -3.50709407	     -1.39476510	      1.60304007	      4.80303932
      0.99216667	     -5.16084973	     -3.49861811	      0.13926914	     -0.13224503	      1.00923497	      0.33158563	     -4.68447199	      7.95162769	      0.15047485	    -16.71618310	     13.32231480	     -4.77895222	      0.36514401	     25.30046329	     -1.87925791	     -0.97410401	      1.23724456	      1.65120610	     -5.39234077	     -3.08152617	     -1.43425072	      1.39506684	      4.76153650
      0.99633333	     -5.11474957	     -3.33141923	      0.12024344	     -0.12645889	      1.00873037	      0.33114159	     -4.62209421	      7.73489791	      0.04890029	    -17.64929310	     13.39548574	     -4.65150346	      0.62652771	     25.29609412	     -1.63470088	     -0.70952893	      0.63375957	      1.38559834	     -5.68732948	     -2.43128692	     -1.44983173	      1.17718108	      4.72456561
      1.00050000	     -4.99283821	     -3.16397859	      0.12259833	     -0.12066131	      1.00838355	      0.33070279	     -4.64551740	      7.53754166	      0.02256339	    -18.55326866	     13.27094304	     -4.80826623	      0.65610976	     25.23594823	     -1.39234503	     -0.54286031	     -0.05471117	      1.26183707	     -5.74419888	     -2.36207815	     -1.57171459	      0.96895621	      4.72277708
      1.00466667	     -4.92409707	     -2.98434570	      0.12076047	     -0.11483166	      1.00796408	      0.33022052	     -4.54871754	      7.30155053	     -0.14081004	    -19.58701859	     13.18908911	     -4.72053773	      2.78605416	     25.20796998	     -1.13323458	     -0.27439918	     -0.70066770	      0.81939033	     -6.17380066	      1.48538248	     -1.59508425	      0.71667273	      4.67135248
      1.00883333	     -4.79370324	     -2.77559877	      0.10538470	     -0.10899077	      1.00770242	      0.32975483	     -4.49775325	      7.03583757	     -0.26007164	    -20.65734757	     13.07005197	     -4.66264208	      2.81844741	     25.12436659	     -0.85746253	     -0.14862856	     -1.40838398	      0.57416824	     -6.33521557	      1.50396088	     -1.72054775	      0.42693567	      4.64040073
      1.01300000	     -4.66926205	     -2.58316014	      0.10667648	     -0.10318905	      1.00744452	      0.32920376	     -4.38810441	      6.76896288	     -0.48263532	    -21.82105200	     12.98545176	     -4.46386825	      2.92714439	     25.05703468	     -0.58595411	      0.04681724	     -2.13739812	      0.22264351	     -6.71048500	      1.55387672	     -1.83369668	      0.19798149	      4.58969840
      1.01716667	     -4.54805153	     -2.36375048	      0.10632797	     -0.09732978	      1.00723468	      0.32867883	     -4.26105576	      6.47999237	     -0.66446692	    -22.99744822	     12.69818331	     -4.46302908	      3.01028798	     24.98415105	     -0.29567469	      0.19255842	     -2.87201584	     -0.06361482	     -6.94754974	      1.58674692	     -1.92711415	     -0.09910787	      4.55415673
      1.02133333	     -4.41859075	     -2.15898503	      0.11513690	     -0.09153243	      1.00705466	      0.32807112	     -4.08818258	      6.18196886	     -0.94156845	    -24.27421155	     12.50799503	     -4.23624650	      3.24905362	     24.90850797	     -0.00958778	      0.40321488	     -3.61435920	     -0.47949182	     -7.44004798	      1.66038452	     -2.04942993	     -0.33569132	      4.48743241
      1.02550000	     -4.29463614	     -1.93820323	      0.12249012	     -0.08570913	      1.00691607	      0.32746007	     -3.88553232	      5.86266809	     -1.21551378	    -25.57859986	     12.15284204	     -4.12117675	      3.57898314	     24.83476730	      0.28703099	      0.57532239	     -4.36335331	     -0.85025014	     -7.84077430	      1.74313570	     -2.15448981	     -0.61332979	      4.42323928
      1.02966667	     -4.14306384	     -1.69783859	      0.12737897	     -0.07984900	      1.00687519	      0.32684426	     -3.69404726	      5.51625548	     -1.48731555	    -26.90032227	     11.62388464	     -4.10727108	      3.73530503	     24.72805735	      0.59330774	      0.66281045	     -5.12257107	     -1.09049073	     -8.02670025	      1.77380917	     -2.28272722	     -0.91202524	      4.39002916
      1.03383333	     -4.03514261	     -1.48851162	      0.14499370	     -0.07405926	      1.00678098	      0.32614983	     -3.40688103	      5.17952999	     -1.83137488	    -28.28689478	     11.01269044	     -4.02998052	      7.89992074	     24.67308232	      0.88362399	      0.86512469	     -5.88219486	     -1.46454932	     -8.53083701	      2.35296430	     -2.36662441	     -1.15603300	      4.32204182
      1.03800000	     -3.85260322	     -1.23707786	      0.15179389	     -0.06823283	      1.00686493	      0.32546456	     -3.18145927	      4.78636347	     -2.17499933	    -29.70396747	     10.37386918	     -3.93569556	      7.92711419	     24.53658339	      1.19632847	      0.88294041	     -6.65730118	     -1.65809142	     -8.65022179	      2.34829688	     -2.54570643	     -1.45874770	      4.27331089
      1.04216667	     -3.70884398	     -0.98747021	      0.16164472	     -0.06243965	      1.00692173	      0.32470970	     -2.86752719	      4.36546594	     -2.58207459	    -31.19895164	      9.77576660	     -3.68655326	      8.11430122	     24.43506860	      1.51620889	      0.96377493	     -7.41987348	     -1.90363120	     -8.96867244	      2.32264937	     -2.68081899	     -1.73511646	      4.16556518
      1.04633333	     -3.54795628	     -0.73538257	      0.17552788	     -0.05663149	      1.00705682	      0.32398238	     -2.56498878	      3.94465997	     -2.95669478	    -32.67259716	      8.93742084	     -3.62870303	      8.19736913	     24.31143762	      1.82917849	      1.00103732	     -8.18617954	     -2.03466108	     -9.09774437	      2.30732447	     -2.82873127	     -2.04375815	      4.12266986
      1.05050000	     -3.35521883	     -0.47277540	      0.18288146	     -0.05086278	      1.00728810	      0.32319802	     -2.26578129	      3.48800237	     -3.35353731	    -34.17299418	      7.99088511	     -3.59147083	     10.86847265	     24.11179127	      2.16723968	      1.16242042	     -8.86210440	     -2.30892022	     -9.59709127	      1.81520777	     -3.04097200	     -2.34830151	      3.97776880
      1.05466667	     -3.22852436	     -0.21987634	      0.20790885	     -0.04510262	      1.00743090	      0.32238140	     -1.86168926	      3.01939622	     -3.80077329	    -35.72899319	      7.09396403	     -3.40069326	     10.98651898	     24.03351029	      2.47770819	      1.10886886	     -9.65358114	     -2.27666367	     -9.51573088	      1.78707861	     -3.14548361	     -2.64263442	      3.92131903
      1.05883333	     -3.05778111	      0.03571219	      0.21727710	     -0.03933750	      1.00770766	      0.32156512	     -1.49635521	      2.53848018	     -4.21458798	    -37.26134220	      6.02225880	     -3.31842134	     11.03669295	     23.86628031	      2.79069941	      1.10635419	    -10.36773449	     -2.25150687	     -9.58434664	      1.77059739	     -3.30331430	     -2.91523706	      3.87904503
      1.06300000	     -2.90827290	      0.28983222	      0.23342506	     -0.03360430	      1.00797396	      0.32072897	     -1.08290322	      2.04550595	     -4.63428470	    -38.81327707	      4.90763970	     -3.24968844	     11.11590698	     23.71091733	      3.10400353	      1.10524055	    -11.05816008	     -2.21408828	     -9.64094439	      1.74245938	     -3.44519599	     -3.20444756	      3.80047255
      1.06716667	     -2.75685388	      0.54725971	      0.25002346	     -0.02789215	      1.00828424	      0.31988224	     -0.65423008	      1.53582875	     -5.04962272	    -40.36514272	      3.72810727	     -3.20092478	     11.21344431	     23.53552680	      3.42029161	      1.09901432	    -11.71504558	     -2.13827516	     -9.68484016	      1.70426619	     -3.59196170	     -3.48824628	      3.70844873
      1.07133333	     -2.59229379	      0.79181980	      0.27598701	     -0.02222619	      1.00864903	      0.31901078	     -0.23031814	      1.03079119	     -5.45744885	    -41.88217859	      2.37922844	     -3.25292984	     15.06481533	     23.34657442	      3.72099184	      1.04100341	    -12.37507295	     -1.97951269	     -9.59612824	      0.19902170	     -3.77761487	     -3.74190860	      3.53668263
      1.07550000	     -2.44281337	      1.05696625	      0.29495905	     -0.01654936	      1.00902716	      0.31814021	      0.22874787	      0.49026484	     -5.85403872	    -43.41941179	      1.13601557	     -3.23065594	     15.05347017	     23.12072587	      4.05130905	      1.06838790	    -12.93257522	     -1.82083677	     -9.66258713	      0.19730316	     -3.91764196	     -4.03771313	      3.47379001
      1.07966667	     -2.31238246	      1.29404104	      0.32623740	     -0.01094232	      1.00940355	      0.31726784	      0.72055044	     -0.01577595	     -6.22551961	    -44.92944595	     -0.17435819	     -3.34004792	     15.05988957	     22.91632138	      4.35122479	      1.06102790	    -13.48416699	     -1.67050788	     -9.66731965	      0.16984238	     -4.06045727	     -4.29791174	      3.34109966
      1.08383333	     -2.16575022	      1.53508614	      0.35537370	     -0.00535294	      1.00984848	      0.31639756	      1.20420002	     -0.53591354	     -6.58445924	    -46.41880251	     -1.45916337	     -3.40178603	     15.06433299	     22.65993308	      4.65546830	      1.05692153	    -13.96761343	     -1.47617244	     -9.65111438	      0.13092759	     -4.22094765	     -4.55539716	      3.22514472
